<mxfile host="Electron" modified="2025-01-17T16:40:59.717Z" agent="Mozilla/5.0 (Macintosh; Intel Mac OS X 10_15_7) AppleWebKit/537.36 (KHTML, like Gecko) draw.io/23.0.2 Chrome/120.0.6099.109 Electron/28.1.0 Safari/537.36" etag="79FIwuutj_1PNM0y4Hpx" version="23.0.2" type="device">
  <diagram name="Страница — 1" id="-4BtK_Ra-prGS7PT-use">
    <mxGraphModel dx="1727" dy="1027" grid="0" gridSize="10" guides="1" tooltips="1" connect="1" arrows="1" fold="1" page="0" pageScale="1" pageWidth="827" pageHeight="1169" math="0" shadow="0">
      <root>
        <mxCell id="0" />
        <mxCell id="1" parent="0" />
        <mxCell id="UqfL8hl1lmu7WySA4xqy-44" value="User" style="shape=umlActor;verticalLabelPosition=bottom;verticalAlign=top;html=1;outlineConnect=0;fillColor=none;strokeColor=#000000;fontSize=10;" vertex="1" parent="1">
          <mxGeometry x="250" y="250" width="30" height="60" as="geometry" />
        </mxCell>
        <mxCell id="UqfL8hl1lmu7WySA4xqy-45" value="View:home.html" style="rounded=0;whiteSpace=wrap;html=1;fillColor=none;strokeColor=#000000;glass=0;" vertex="1" parent="1">
          <mxGeometry x="360" y="270" width="100" height="40" as="geometry" />
        </mxCell>
        <mxCell id="UqfL8hl1lmu7WySA4xqy-46" value="View:games/index.html" style="rounded=0;whiteSpace=wrap;html=1;fillColor=none;strokeColor=#000000;glass=0;" vertex="1" parent="1">
          <mxGeometry x="490" y="270" width="130" height="40" as="geometry" />
        </mxCell>
        <mxCell id="UqfL8hl1lmu7WySA4xqy-47" value="Model: games" style="rounded=0;whiteSpace=wrap;html=1;fillColor=none;strokeColor=#000000;glass=0;" vertex="1" parent="1">
          <mxGeometry x="810" y="270" width="130" height="40" as="geometry" />
        </mxCell>
        <mxCell id="UqfL8hl1lmu7WySA4xqy-48" value="Controller: games_controller" style="rounded=0;whiteSpace=wrap;html=1;fillColor=none;strokeColor=#000000;glass=0;" vertex="1" parent="1">
          <mxGeometry x="650" y="270" width="130" height="40" as="geometry" />
        </mxCell>
        <mxCell id="UqfL8hl1lmu7WySA4xqy-49" value="DB" style="shape=cylinder3;whiteSpace=wrap;html=1;boundedLbl=1;backgroundOutline=1;size=15;fillColor=none;strokeColor=#000000;" vertex="1" parent="1">
          <mxGeometry x="980" y="230" width="60" height="80" as="geometry" />
        </mxCell>
        <mxCell id="UqfL8hl1lmu7WySA4xqy-50" value="" style="endArrow=none;dashed=1;html=1;rounded=0;" edge="1" parent="1">
          <mxGeometry width="50" height="50" relative="1" as="geometry">
            <mxPoint x="264" y="610" as="sourcePoint" />
            <mxPoint x="264.3299999999999" y="330" as="targetPoint" />
          </mxGeometry>
        </mxCell>
        <mxCell id="UqfL8hl1lmu7WySA4xqy-51" value="" style="endArrow=none;dashed=1;html=1;rounded=0;" edge="1" parent="1" source="UqfL8hl1lmu7WySA4xqy-78">
          <mxGeometry width="50" height="50" relative="1" as="geometry">
            <mxPoint x="409" y="610" as="sourcePoint" />
            <mxPoint x="409.3299999999999" y="310" as="targetPoint" />
          </mxGeometry>
        </mxCell>
        <mxCell id="UqfL8hl1lmu7WySA4xqy-52" value="" style="endArrow=none;dashed=1;html=1;rounded=0;" edge="1" parent="1">
          <mxGeometry width="50" height="50" relative="1" as="geometry">
            <mxPoint x="555" y="610" as="sourcePoint" />
            <mxPoint x="554.6599999999999" y="310" as="targetPoint" />
          </mxGeometry>
        </mxCell>
        <mxCell id="UqfL8hl1lmu7WySA4xqy-53" value="" style="endArrow=none;dashed=1;html=1;rounded=0;" edge="1" parent="1" source="UqfL8hl1lmu7WySA4xqy-80">
          <mxGeometry width="50" height="50" relative="1" as="geometry">
            <mxPoint x="715" y="610" as="sourcePoint" />
            <mxPoint x="714.6599999999999" y="310" as="targetPoint" />
          </mxGeometry>
        </mxCell>
        <mxCell id="UqfL8hl1lmu7WySA4xqy-54" value="" style="endArrow=none;dashed=1;html=1;rounded=0;" edge="1" parent="1" source="UqfL8hl1lmu7WySA4xqy-82">
          <mxGeometry width="50" height="50" relative="1" as="geometry">
            <mxPoint x="875" y="610" as="sourcePoint" />
            <mxPoint x="874.6599999999999" y="310" as="targetPoint" />
          </mxGeometry>
        </mxCell>
        <mxCell id="UqfL8hl1lmu7WySA4xqy-55" value="" style="endArrow=none;dashed=1;html=1;rounded=0;" edge="1" parent="1" source="UqfL8hl1lmu7WySA4xqy-84">
          <mxGeometry width="50" height="50" relative="1" as="geometry">
            <mxPoint x="1010" y="610" as="sourcePoint" />
            <mxPoint x="1009.77" y="310" as="targetPoint" />
          </mxGeometry>
        </mxCell>
        <mxCell id="UqfL8hl1lmu7WySA4xqy-56" value="" style="endArrow=classic;html=1;rounded=0;entryX=-0.06;entryY=0.089;entryDx=0;entryDy=0;entryPerimeter=0;" edge="1" parent="1" target="UqfL8hl1lmu7WySA4xqy-76">
          <mxGeometry width="50" height="50" relative="1" as="geometry">
            <mxPoint x="264" y="350" as="sourcePoint" />
            <mxPoint x="400" y="350" as="targetPoint" />
          </mxGeometry>
        </mxCell>
        <mxCell id="UqfL8hl1lmu7WySA4xqy-57" value="&lt;font style=&quot;font-size: 10px;&quot;&gt;Open index.html&lt;/font&gt;" style="text;html=1;align=center;verticalAlign=middle;whiteSpace=wrap;rounded=0;fontSize=10;" vertex="1" parent="1">
          <mxGeometry x="280" y="330" width="105" height="20" as="geometry" />
        </mxCell>
        <mxCell id="UqfL8hl1lmu7WySA4xqy-58" value="" style="endArrow=classic;html=1;rounded=0;dashed=1;dashPattern=1 2;" edge="1" parent="1">
          <mxGeometry width="50" height="50" relative="1" as="geometry">
            <mxPoint x="410" y="384.46" as="sourcePoint" />
            <mxPoint x="265" y="384" as="targetPoint" />
          </mxGeometry>
        </mxCell>
        <mxCell id="UqfL8hl1lmu7WySA4xqy-59" value="&lt;font style=&quot;font-size: 10px;&quot;&gt;Displaying entities&lt;/font&gt;" style="text;html=1;align=center;verticalAlign=middle;whiteSpace=wrap;rounded=0;fontSize=10;" vertex="1" parent="1">
          <mxGeometry x="260" y="371" width="160" height="10" as="geometry" />
        </mxCell>
        <mxCell id="UqfL8hl1lmu7WySA4xqy-60" value="" style="endArrow=classic;html=1;rounded=0;" edge="1" parent="1">
          <mxGeometry width="50" height="50" relative="1" as="geometry">
            <mxPoint x="265" y="420" as="sourcePoint" />
            <mxPoint x="404" y="420" as="targetPoint" />
          </mxGeometry>
        </mxCell>
        <mxCell id="UqfL8hl1lmu7WySA4xqy-61" value="Open &quot;Game&quot;" style="text;html=1;align=center;verticalAlign=middle;whiteSpace=wrap;rounded=0;fontSize=10;" vertex="1" parent="1">
          <mxGeometry x="270" y="400" width="127.5" height="20" as="geometry" />
        </mxCell>
        <mxCell id="UqfL8hl1lmu7WySA4xqy-62" value="" style="endArrow=classic;html=1;rounded=0;" edge="1" parent="1">
          <mxGeometry width="50" height="50" relative="1" as="geometry">
            <mxPoint x="410" y="440" as="sourcePoint" />
            <mxPoint x="710" y="440" as="targetPoint" />
          </mxGeometry>
        </mxCell>
        <mxCell id="UqfL8hl1lmu7WySA4xqy-63" value="&lt;font style=&quot;font-size: 10px;&quot;&gt;GET /games&lt;/font&gt;" style="text;html=1;align=center;verticalAlign=middle;whiteSpace=wrap;rounded=0;" vertex="1" parent="1">
          <mxGeometry x="542" y="420" width="115" height="20" as="geometry" />
        </mxCell>
        <mxCell id="UqfL8hl1lmu7WySA4xqy-64" value="" style="endArrow=classic;html=1;rounded=0;" edge="1" parent="1">
          <mxGeometry width="50" height="50" relative="1" as="geometry">
            <mxPoint x="720" y="460" as="sourcePoint" />
            <mxPoint x="870" y="460" as="targetPoint" />
          </mxGeometry>
        </mxCell>
        <mxCell id="UqfL8hl1lmu7WySA4xqy-65" value="&lt;font style=&quot;font-size: 10px;&quot;&gt;Game.all&lt;/font&gt;" style="text;html=1;align=center;verticalAlign=middle;whiteSpace=wrap;rounded=0;" vertex="1" parent="1">
          <mxGeometry x="760" y="436" width="60" height="30" as="geometry" />
        </mxCell>
        <mxCell id="UqfL8hl1lmu7WySA4xqy-66" value="" style="endArrow=classic;html=1;rounded=0;" edge="1" parent="1">
          <mxGeometry width="50" height="50" relative="1" as="geometry">
            <mxPoint x="880" y="480" as="sourcePoint" />
            <mxPoint x="1004" y="480" as="targetPoint" />
          </mxGeometry>
        </mxCell>
        <mxCell id="UqfL8hl1lmu7WySA4xqy-67" value="&lt;font style=&quot;font-size: 10px;&quot;&gt;SELECT * FROM games&lt;/font&gt;" style="text;html=1;align=center;verticalAlign=middle;whiteSpace=wrap;rounded=0;fontSize=10;" vertex="1" parent="1">
          <mxGeometry x="875" y="456" width="130" height="30" as="geometry" />
        </mxCell>
        <mxCell id="UqfL8hl1lmu7WySA4xqy-68" value="" style="endArrow=classic;html=1;rounded=0;dashed=1;dashPattern=1 2;" edge="1" parent="1">
          <mxGeometry width="50" height="50" relative="1" as="geometry">
            <mxPoint x="1010" y="520" as="sourcePoint" />
            <mxPoint x="880" y="520" as="targetPoint" />
          </mxGeometry>
        </mxCell>
        <mxCell id="UqfL8hl1lmu7WySA4xqy-69" value="&lt;font style=&quot;font-size: 10px;&quot;&gt;Result set&lt;/font&gt;" style="text;html=1;align=center;verticalAlign=middle;whiteSpace=wrap;rounded=0;" vertex="1" parent="1">
          <mxGeometry x="879" y="495" width="130" height="30" as="geometry" />
        </mxCell>
        <mxCell id="UqfL8hl1lmu7WySA4xqy-70" value="" style="endArrow=classic;html=1;rounded=0;dashed=1;dashPattern=1 2;" edge="1" parent="1">
          <mxGeometry width="50" height="50" relative="1" as="geometry">
            <mxPoint x="870" y="540" as="sourcePoint" />
            <mxPoint x="720" y="540" as="targetPoint" />
          </mxGeometry>
        </mxCell>
        <mxCell id="UqfL8hl1lmu7WySA4xqy-71" value="return&lt;br&gt;ActiveRecord::Relation" style="text;html=1;align=center;verticalAlign=middle;whiteSpace=wrap;rounded=0;fontSize=10;" vertex="1" parent="1">
          <mxGeometry x="720" y="510" width="150" height="30" as="geometry" />
        </mxCell>
        <mxCell id="UqfL8hl1lmu7WySA4xqy-72" value="" style="endArrow=classic;html=1;rounded=0;dashed=1;dashPattern=1 2;" edge="1" parent="1">
          <mxGeometry width="50" height="50" relative="1" as="geometry">
            <mxPoint x="710" y="550" as="sourcePoint" />
            <mxPoint x="560" y="550" as="targetPoint" />
          </mxGeometry>
        </mxCell>
        <mxCell id="UqfL8hl1lmu7WySA4xqy-73" value="&lt;font style=&quot;font-size: 10px;&quot;&gt;Displaying games &lt;br&gt;index.html&lt;/font&gt;" style="text;html=1;align=center;verticalAlign=middle;whiteSpace=wrap;rounded=0;" vertex="1" parent="1">
          <mxGeometry x="560" y="517" width="150" height="30" as="geometry" />
        </mxCell>
        <mxCell id="UqfL8hl1lmu7WySA4xqy-74" value="" style="endArrow=classic;html=1;rounded=0;dashed=1;dashPattern=1 2;" edge="1" parent="1">
          <mxGeometry width="50" height="50" relative="1" as="geometry">
            <mxPoint x="550" y="560" as="sourcePoint" />
            <mxPoint x="266" y="560" as="targetPoint" />
          </mxGeometry>
        </mxCell>
        <mxCell id="UqfL8hl1lmu7WySA4xqy-75" value="&lt;font style=&quot;font-size: 10px;&quot;&gt;Displaying all games&lt;/font&gt;" style="text;html=1;align=center;verticalAlign=middle;whiteSpace=wrap;rounded=0;" vertex="1" parent="1">
          <mxGeometry x="270" y="535" width="150" height="30" as="geometry" />
        </mxCell>
        <mxCell id="UqfL8hl1lmu7WySA4xqy-76" value="" style="rounded=0;whiteSpace=wrap;html=1;" vertex="1" parent="1">
          <mxGeometry x="405" y="345" width="10" height="55" as="geometry" />
        </mxCell>
        <mxCell id="UqfL8hl1lmu7WySA4xqy-77" value="" style="endArrow=none;dashed=1;html=1;rounded=0;" edge="1" parent="1" target="UqfL8hl1lmu7WySA4xqy-78">
          <mxGeometry width="50" height="50" relative="1" as="geometry">
            <mxPoint x="409" y="610" as="sourcePoint" />
            <mxPoint x="409.3299999999999" y="310" as="targetPoint" />
          </mxGeometry>
        </mxCell>
        <mxCell id="UqfL8hl1lmu7WySA4xqy-78" value="" style="rounded=0;whiteSpace=wrap;html=1;" vertex="1" parent="1">
          <mxGeometry x="405" y="415" width="10" height="30" as="geometry" />
        </mxCell>
        <mxCell id="UqfL8hl1lmu7WySA4xqy-79" value="" style="endArrow=none;dashed=1;html=1;rounded=0;" edge="1" parent="1" target="UqfL8hl1lmu7WySA4xqy-80">
          <mxGeometry width="50" height="50" relative="1" as="geometry">
            <mxPoint x="715" y="610" as="sourcePoint" />
            <mxPoint x="714.6599999999999" y="310" as="targetPoint" />
          </mxGeometry>
        </mxCell>
        <mxCell id="UqfL8hl1lmu7WySA4xqy-80" value="" style="rounded=0;whiteSpace=wrap;html=1;" vertex="1" parent="1">
          <mxGeometry x="710" y="430" width="10" height="130" as="geometry" />
        </mxCell>
        <mxCell id="UqfL8hl1lmu7WySA4xqy-81" value="" style="endArrow=none;dashed=1;html=1;rounded=0;" edge="1" parent="1" target="UqfL8hl1lmu7WySA4xqy-82">
          <mxGeometry width="50" height="50" relative="1" as="geometry">
            <mxPoint x="875" y="610" as="sourcePoint" />
            <mxPoint x="874.6599999999999" y="310" as="targetPoint" />
          </mxGeometry>
        </mxCell>
        <mxCell id="UqfL8hl1lmu7WySA4xqy-82" value="" style="rounded=0;whiteSpace=wrap;html=1;" vertex="1" parent="1">
          <mxGeometry x="870" y="450" width="10" height="100" as="geometry" />
        </mxCell>
        <mxCell id="UqfL8hl1lmu7WySA4xqy-83" value="" style="endArrow=none;dashed=1;html=1;rounded=0;" edge="1" parent="1" target="UqfL8hl1lmu7WySA4xqy-84">
          <mxGeometry width="50" height="50" relative="1" as="geometry">
            <mxPoint x="1010" y="610" as="sourcePoint" />
            <mxPoint x="1009.77" y="310" as="targetPoint" />
          </mxGeometry>
        </mxCell>
        <mxCell id="UqfL8hl1lmu7WySA4xqy-84" value="" style="rounded=0;whiteSpace=wrap;html=1;" vertex="1" parent="1">
          <mxGeometry x="1005" y="470" width="10" height="60" as="geometry" />
        </mxCell>
        <mxCell id="UqfL8hl1lmu7WySA4xqy-85" value="" style="rounded=0;whiteSpace=wrap;html=1;" vertex="1" parent="1">
          <mxGeometry x="550" y="540" width="10" height="25" as="geometry" />
        </mxCell>
        <mxCell id="UqfL8hl1lmu7WySA4xqy-86" value="User" style="shape=umlActor;verticalLabelPosition=bottom;verticalAlign=top;html=1;outlineConnect=0;fillColor=none;strokeColor=#000000;" vertex="1" parent="1">
          <mxGeometry x="270" y="760" width="30" height="60" as="geometry" />
        </mxCell>
        <mxCell id="UqfL8hl1lmu7WySA4xqy-87" value="View:home.html" style="rounded=0;whiteSpace=wrap;html=1;fillColor=none;strokeColor=#000000;glass=0;" vertex="1" parent="1">
          <mxGeometry x="380" y="780" width="100" height="40" as="geometry" />
        </mxCell>
        <mxCell id="UqfL8hl1lmu7WySA4xqy-88" value="View:publishers/index.html" style="rounded=0;whiteSpace=wrap;html=1;fillColor=none;strokeColor=#000000;glass=0;" vertex="1" parent="1">
          <mxGeometry x="500" y="780" width="150" height="40" as="geometry" />
        </mxCell>
        <mxCell id="UqfL8hl1lmu7WySA4xqy-89" value="Model: publishers" style="rounded=0;whiteSpace=wrap;html=1;fillColor=none;strokeColor=#000000;glass=0;" vertex="1" parent="1">
          <mxGeometry x="830" y="780" width="130" height="40" as="geometry" />
        </mxCell>
        <mxCell id="UqfL8hl1lmu7WySA4xqy-90" value="Controller: publishers_controller" style="rounded=0;whiteSpace=wrap;html=1;fillColor=none;strokeColor=#000000;glass=0;" vertex="1" parent="1">
          <mxGeometry x="670" y="780" width="130" height="40" as="geometry" />
        </mxCell>
        <mxCell id="UqfL8hl1lmu7WySA4xqy-91" value="" style="endArrow=none;dashed=1;html=1;rounded=0;" edge="1" parent="1">
          <mxGeometry width="50" height="50" relative="1" as="geometry">
            <mxPoint x="284" y="1120" as="sourcePoint" />
            <mxPoint x="284.3299999999999" y="840" as="targetPoint" />
          </mxGeometry>
        </mxCell>
        <mxCell id="UqfL8hl1lmu7WySA4xqy-92" value="" style="endArrow=none;dashed=1;html=1;rounded=0;" edge="1" parent="1" source="UqfL8hl1lmu7WySA4xqy-119">
          <mxGeometry width="50" height="50" relative="1" as="geometry">
            <mxPoint x="429" y="1120" as="sourcePoint" />
            <mxPoint x="429.3299999999999" y="820" as="targetPoint" />
          </mxGeometry>
        </mxCell>
        <mxCell id="UqfL8hl1lmu7WySA4xqy-93" value="" style="endArrow=none;dashed=1;html=1;rounded=0;" edge="1" parent="1">
          <mxGeometry width="50" height="50" relative="1" as="geometry">
            <mxPoint x="575" y="1120" as="sourcePoint" />
            <mxPoint x="574.6599999999999" y="820" as="targetPoint" />
          </mxGeometry>
        </mxCell>
        <mxCell id="UqfL8hl1lmu7WySA4xqy-94" value="" style="endArrow=none;dashed=1;html=1;rounded=0;" edge="1" parent="1" source="UqfL8hl1lmu7WySA4xqy-121">
          <mxGeometry width="50" height="50" relative="1" as="geometry">
            <mxPoint x="735" y="1120" as="sourcePoint" />
            <mxPoint x="734.6599999999999" y="820" as="targetPoint" />
          </mxGeometry>
        </mxCell>
        <mxCell id="UqfL8hl1lmu7WySA4xqy-95" value="" style="endArrow=none;dashed=1;html=1;rounded=0;" edge="1" parent="1" source="UqfL8hl1lmu7WySA4xqy-123">
          <mxGeometry width="50" height="50" relative="1" as="geometry">
            <mxPoint x="895" y="1120" as="sourcePoint" />
            <mxPoint x="894.6599999999999" y="820" as="targetPoint" />
          </mxGeometry>
        </mxCell>
        <mxCell id="UqfL8hl1lmu7WySA4xqy-96" value="" style="endArrow=none;dashed=1;html=1;rounded=0;" edge="1" parent="1" source="UqfL8hl1lmu7WySA4xqy-125">
          <mxGeometry width="50" height="50" relative="1" as="geometry">
            <mxPoint x="1045" y="1120" as="sourcePoint" />
            <mxPoint x="1044.77" y="820" as="targetPoint" />
          </mxGeometry>
        </mxCell>
        <mxCell id="UqfL8hl1lmu7WySA4xqy-97" value="" style="endArrow=classic;html=1;rounded=0;entryX=-0.06;entryY=0.089;entryDx=0;entryDy=0;entryPerimeter=0;" edge="1" parent="1" target="UqfL8hl1lmu7WySA4xqy-117">
          <mxGeometry width="50" height="50" relative="1" as="geometry">
            <mxPoint x="284" y="860" as="sourcePoint" />
            <mxPoint x="420" y="860" as="targetPoint" />
          </mxGeometry>
        </mxCell>
        <mxCell id="UqfL8hl1lmu7WySA4xqy-98" value="&lt;font style=&quot;font-size: 10px;&quot;&gt;Open index.html&lt;/font&gt;" style="text;html=1;align=center;verticalAlign=middle;whiteSpace=wrap;rounded=0;fontSize=10;" vertex="1" parent="1">
          <mxGeometry x="300" y="840" width="105" height="20" as="geometry" />
        </mxCell>
        <mxCell id="UqfL8hl1lmu7WySA4xqy-99" value="" style="endArrow=classic;html=1;rounded=0;dashed=1;dashPattern=1 2;jumpSize=6;" edge="1" parent="1">
          <mxGeometry width="50" height="50" relative="1" as="geometry">
            <mxPoint x="430" y="894.46" as="sourcePoint" />
            <mxPoint x="285" y="894" as="targetPoint" />
          </mxGeometry>
        </mxCell>
        <mxCell id="UqfL8hl1lmu7WySA4xqy-100" value="&lt;font style=&quot;font-size: 10px;&quot;&gt;Displaying entities&lt;/font&gt;" style="text;html=1;align=center;verticalAlign=middle;whiteSpace=wrap;rounded=0;fontSize=10;" vertex="1" parent="1">
          <mxGeometry x="280" y="881" width="160" height="10" as="geometry" />
        </mxCell>
        <mxCell id="UqfL8hl1lmu7WySA4xqy-101" value="" style="endArrow=classic;html=1;rounded=0;" edge="1" parent="1">
          <mxGeometry width="50" height="50" relative="1" as="geometry">
            <mxPoint x="285" y="930" as="sourcePoint" />
            <mxPoint x="424" y="930" as="targetPoint" />
          </mxGeometry>
        </mxCell>
        <mxCell id="UqfL8hl1lmu7WySA4xqy-102" value="Open &quot;Publisher&quot;" style="text;html=1;align=center;verticalAlign=middle;whiteSpace=wrap;rounded=0;fontSize=10;" vertex="1" parent="1">
          <mxGeometry x="290" y="910" width="127.5" height="20" as="geometry" />
        </mxCell>
        <mxCell id="UqfL8hl1lmu7WySA4xqy-103" value="" style="endArrow=classic;html=1;rounded=0;" edge="1" parent="1">
          <mxGeometry width="50" height="50" relative="1" as="geometry">
            <mxPoint x="430" y="950" as="sourcePoint" />
            <mxPoint x="730" y="950" as="targetPoint" />
          </mxGeometry>
        </mxCell>
        <mxCell id="UqfL8hl1lmu7WySA4xqy-104" value="&lt;font style=&quot;font-size: 10px;&quot;&gt;GET /&lt;/font&gt;publishers" style="text;html=1;align=center;verticalAlign=middle;whiteSpace=wrap;rounded=0;fontSize=10;" vertex="1" parent="1">
          <mxGeometry x="562" y="930" width="115" height="20" as="geometry" />
        </mxCell>
        <mxCell id="UqfL8hl1lmu7WySA4xqy-105" value="" style="endArrow=classic;html=1;rounded=0;" edge="1" parent="1">
          <mxGeometry width="50" height="50" relative="1" as="geometry">
            <mxPoint x="740" y="970" as="sourcePoint" />
            <mxPoint x="890" y="970" as="targetPoint" />
          </mxGeometry>
        </mxCell>
        <mxCell id="UqfL8hl1lmu7WySA4xqy-106" value="&lt;font style=&quot;font-size: 10px;&quot;&gt;Publisher.all&lt;/font&gt;" style="text;html=1;align=center;verticalAlign=middle;whiteSpace=wrap;rounded=0;fontSize=10;" vertex="1" parent="1">
          <mxGeometry x="780" y="946" width="60" height="30" as="geometry" />
        </mxCell>
        <mxCell id="UqfL8hl1lmu7WySA4xqy-107" value="" style="endArrow=classic;html=1;rounded=0;" edge="1" parent="1">
          <mxGeometry width="50" height="50" relative="1" as="geometry">
            <mxPoint x="900" y="990" as="sourcePoint" />
            <mxPoint x="1039" y="990" as="targetPoint" />
          </mxGeometry>
        </mxCell>
        <mxCell id="UqfL8hl1lmu7WySA4xqy-108" value="&lt;font style=&quot;font-size: 10px;&quot;&gt;SELECT * FROM&amp;nbsp;&lt;/font&gt;publishers" style="text;html=1;align=center;verticalAlign=middle;whiteSpace=wrap;rounded=0;fontSize=10;" vertex="1" parent="1">
          <mxGeometry x="902" y="963" width="130" height="30" as="geometry" />
        </mxCell>
        <mxCell id="UqfL8hl1lmu7WySA4xqy-109" value="" style="endArrow=classic;html=1;rounded=0;dashed=1;dashPattern=1 2;" edge="1" parent="1">
          <mxGeometry width="50" height="50" relative="1" as="geometry">
            <mxPoint x="1039" y="1030" as="sourcePoint" />
            <mxPoint x="900" y="1030" as="targetPoint" />
          </mxGeometry>
        </mxCell>
        <mxCell id="UqfL8hl1lmu7WySA4xqy-110" value="&lt;font style=&quot;font-size: 10px;&quot;&gt;Result set&lt;/font&gt;" style="text;html=1;align=center;verticalAlign=middle;whiteSpace=wrap;rounded=0;" vertex="1" parent="1">
          <mxGeometry x="906" y="1007" width="130" height="30" as="geometry" />
        </mxCell>
        <mxCell id="UqfL8hl1lmu7WySA4xqy-111" value="" style="endArrow=classic;html=1;rounded=0;dashed=1;dashPattern=1 2;" edge="1" parent="1">
          <mxGeometry width="50" height="50" relative="1" as="geometry">
            <mxPoint x="890" y="1050" as="sourcePoint" />
            <mxPoint x="740" y="1050" as="targetPoint" />
          </mxGeometry>
        </mxCell>
        <mxCell id="UqfL8hl1lmu7WySA4xqy-112" value="return&lt;br&gt;ActiveRecord::Relation" style="text;html=1;align=center;verticalAlign=middle;whiteSpace=wrap;rounded=0;fontSize=10;" vertex="1" parent="1">
          <mxGeometry x="740" y="1020" width="150" height="30" as="geometry" />
        </mxCell>
        <mxCell id="UqfL8hl1lmu7WySA4xqy-113" value="" style="endArrow=classic;html=1;rounded=0;dashed=1;dashPattern=1 2;" edge="1" parent="1">
          <mxGeometry width="50" height="50" relative="1" as="geometry">
            <mxPoint x="730" y="1060" as="sourcePoint" />
            <mxPoint x="580" y="1060" as="targetPoint" />
          </mxGeometry>
        </mxCell>
        <mxCell id="UqfL8hl1lmu7WySA4xqy-114" value="&lt;font style=&quot;font-size: 10px;&quot;&gt;Displaying&amp;nbsp;publishers&lt;br&gt;index.html&lt;/font&gt;" style="text;html=1;align=center;verticalAlign=middle;whiteSpace=wrap;rounded=0;" vertex="1" parent="1">
          <mxGeometry x="580" y="1028" width="150" height="30" as="geometry" />
        </mxCell>
        <mxCell id="UqfL8hl1lmu7WySA4xqy-115" value="" style="endArrow=classic;html=1;rounded=0;dashed=1;dashPattern=1 2;" edge="1" parent="1">
          <mxGeometry width="50" height="50" relative="1" as="geometry">
            <mxPoint x="570" y="1070" as="sourcePoint" />
            <mxPoint x="286" y="1070" as="targetPoint" />
          </mxGeometry>
        </mxCell>
        <mxCell id="UqfL8hl1lmu7WySA4xqy-116" value="&lt;font style=&quot;font-size: 10px;&quot;&gt;&lt;font style=&quot;font-size: 10px;&quot;&gt;Displaying all&amp;nbsp;&lt;/font&gt;publishers&lt;/font&gt;" style="text;html=1;align=center;verticalAlign=middle;whiteSpace=wrap;rounded=0;" vertex="1" parent="1">
          <mxGeometry x="290" y="1045" width="150" height="30" as="geometry" />
        </mxCell>
        <mxCell id="UqfL8hl1lmu7WySA4xqy-117" value="" style="rounded=0;whiteSpace=wrap;html=1;" vertex="1" parent="1">
          <mxGeometry x="425" y="855" width="10" height="55" as="geometry" />
        </mxCell>
        <mxCell id="UqfL8hl1lmu7WySA4xqy-118" value="" style="endArrow=none;dashed=1;html=1;rounded=0;" edge="1" parent="1" target="UqfL8hl1lmu7WySA4xqy-119">
          <mxGeometry width="50" height="50" relative="1" as="geometry">
            <mxPoint x="429" y="1120" as="sourcePoint" />
            <mxPoint x="429.3299999999999" y="820" as="targetPoint" />
          </mxGeometry>
        </mxCell>
        <mxCell id="UqfL8hl1lmu7WySA4xqy-119" value="" style="rounded=0;whiteSpace=wrap;html=1;" vertex="1" parent="1">
          <mxGeometry x="425" y="925" width="10" height="30" as="geometry" />
        </mxCell>
        <mxCell id="UqfL8hl1lmu7WySA4xqy-120" value="" style="endArrow=none;dashed=1;html=1;rounded=0;" edge="1" parent="1" target="UqfL8hl1lmu7WySA4xqy-121">
          <mxGeometry width="50" height="50" relative="1" as="geometry">
            <mxPoint x="735" y="1120" as="sourcePoint" />
            <mxPoint x="734.6599999999999" y="820" as="targetPoint" />
          </mxGeometry>
        </mxCell>
        <mxCell id="UqfL8hl1lmu7WySA4xqy-121" value="" style="rounded=0;whiteSpace=wrap;html=1;" vertex="1" parent="1">
          <mxGeometry x="730" y="940" width="10" height="130" as="geometry" />
        </mxCell>
        <mxCell id="UqfL8hl1lmu7WySA4xqy-122" value="" style="endArrow=none;dashed=1;html=1;rounded=0;" edge="1" parent="1" target="UqfL8hl1lmu7WySA4xqy-123">
          <mxGeometry width="50" height="50" relative="1" as="geometry">
            <mxPoint x="895" y="1120" as="sourcePoint" />
            <mxPoint x="894.6599999999999" y="820" as="targetPoint" />
          </mxGeometry>
        </mxCell>
        <mxCell id="UqfL8hl1lmu7WySA4xqy-123" value="" style="rounded=0;whiteSpace=wrap;html=1;" vertex="1" parent="1">
          <mxGeometry x="890" y="960" width="10" height="100" as="geometry" />
        </mxCell>
        <mxCell id="UqfL8hl1lmu7WySA4xqy-124" value="" style="endArrow=none;dashed=1;html=1;rounded=0;" edge="1" parent="1" target="UqfL8hl1lmu7WySA4xqy-125">
          <mxGeometry width="50" height="50" relative="1" as="geometry">
            <mxPoint x="1045" y="1120" as="sourcePoint" />
            <mxPoint x="1044.77" y="820" as="targetPoint" />
          </mxGeometry>
        </mxCell>
        <mxCell id="UqfL8hl1lmu7WySA4xqy-125" value="" style="rounded=0;whiteSpace=wrap;html=1;" vertex="1" parent="1">
          <mxGeometry x="1040" y="980" width="10" height="60" as="geometry" />
        </mxCell>
        <mxCell id="UqfL8hl1lmu7WySA4xqy-126" value="" style="rounded=0;whiteSpace=wrap;html=1;" vertex="1" parent="1">
          <mxGeometry x="570" y="1050" width="10" height="25" as="geometry" />
        </mxCell>
        <mxCell id="UqfL8hl1lmu7WySA4xqy-127" value="User" style="shape=umlActor;verticalLabelPosition=bottom;verticalAlign=top;html=1;outlineConnect=0;fillColor=none;strokeColor=#000000;" vertex="1" parent="1">
          <mxGeometry x="272.5" y="1330" width="30" height="60" as="geometry" />
        </mxCell>
        <mxCell id="UqfL8hl1lmu7WySA4xqy-128" value="View:home.html" style="rounded=0;whiteSpace=wrap;html=1;fillColor=none;strokeColor=#000000;glass=0;" vertex="1" parent="1">
          <mxGeometry x="382.5" y="1350" width="100" height="40" as="geometry" />
        </mxCell>
        <mxCell id="UqfL8hl1lmu7WySA4xqy-129" value="View:&amp;nbsp;platforms/index.html" style="rounded=0;whiteSpace=wrap;html=1;fillColor=none;strokeColor=#000000;glass=0;" vertex="1" parent="1">
          <mxGeometry x="503.75" y="1350" width="147.5" height="40" as="geometry" />
        </mxCell>
        <mxCell id="UqfL8hl1lmu7WySA4xqy-130" value="Model: platforms" style="rounded=0;whiteSpace=wrap;html=1;fillColor=none;strokeColor=#000000;glass=0;" vertex="1" parent="1">
          <mxGeometry x="832.5" y="1350" width="130" height="40" as="geometry" />
        </mxCell>
        <mxCell id="UqfL8hl1lmu7WySA4xqy-131" value="Controller: platforms_controller" style="rounded=0;whiteSpace=wrap;html=1;fillColor=none;strokeColor=#000000;glass=0;" vertex="1" parent="1">
          <mxGeometry x="672.5" y="1350" width="130" height="40" as="geometry" />
        </mxCell>
        <mxCell id="UqfL8hl1lmu7WySA4xqy-132" value="" style="endArrow=none;dashed=1;html=1;rounded=0;" edge="1" parent="1">
          <mxGeometry width="50" height="50" relative="1" as="geometry">
            <mxPoint x="286.5" y="1690" as="sourcePoint" />
            <mxPoint x="286.8299999999999" y="1410" as="targetPoint" />
          </mxGeometry>
        </mxCell>
        <mxCell id="UqfL8hl1lmu7WySA4xqy-133" value="" style="endArrow=none;dashed=1;html=1;rounded=0;" edge="1" parent="1" source="UqfL8hl1lmu7WySA4xqy-160">
          <mxGeometry width="50" height="50" relative="1" as="geometry">
            <mxPoint x="431.5" y="1690" as="sourcePoint" />
            <mxPoint x="431.8299999999999" y="1390" as="targetPoint" />
          </mxGeometry>
        </mxCell>
        <mxCell id="UqfL8hl1lmu7WySA4xqy-134" value="" style="endArrow=none;dashed=1;html=1;rounded=0;" edge="1" parent="1">
          <mxGeometry width="50" height="50" relative="1" as="geometry">
            <mxPoint x="577.5" y="1690" as="sourcePoint" />
            <mxPoint x="577.1599999999999" y="1390" as="targetPoint" />
          </mxGeometry>
        </mxCell>
        <mxCell id="UqfL8hl1lmu7WySA4xqy-135" value="" style="endArrow=none;dashed=1;html=1;rounded=0;" edge="1" parent="1" source="UqfL8hl1lmu7WySA4xqy-162">
          <mxGeometry width="50" height="50" relative="1" as="geometry">
            <mxPoint x="737.5" y="1690" as="sourcePoint" />
            <mxPoint x="737.1599999999999" y="1390" as="targetPoint" />
          </mxGeometry>
        </mxCell>
        <mxCell id="UqfL8hl1lmu7WySA4xqy-136" value="" style="endArrow=none;dashed=1;html=1;rounded=0;" edge="1" parent="1" source="UqfL8hl1lmu7WySA4xqy-164">
          <mxGeometry width="50" height="50" relative="1" as="geometry">
            <mxPoint x="897.5" y="1690" as="sourcePoint" />
            <mxPoint x="897.1599999999999" y="1390" as="targetPoint" />
          </mxGeometry>
        </mxCell>
        <mxCell id="UqfL8hl1lmu7WySA4xqy-137" value="" style="endArrow=none;dashed=1;html=1;rounded=0;" edge="1" parent="1" source="UqfL8hl1lmu7WySA4xqy-166">
          <mxGeometry width="50" height="50" relative="1" as="geometry">
            <mxPoint x="1045" y="1690" as="sourcePoint" />
            <mxPoint x="1044.77" y="1390" as="targetPoint" />
          </mxGeometry>
        </mxCell>
        <mxCell id="UqfL8hl1lmu7WySA4xqy-138" value="" style="endArrow=classic;html=1;rounded=0;entryX=-0.06;entryY=0.089;entryDx=0;entryDy=0;entryPerimeter=0;" edge="1" parent="1" target="UqfL8hl1lmu7WySA4xqy-158">
          <mxGeometry width="50" height="50" relative="1" as="geometry">
            <mxPoint x="286.5" y="1430" as="sourcePoint" />
            <mxPoint x="422.5" y="1430" as="targetPoint" />
          </mxGeometry>
        </mxCell>
        <mxCell id="UqfL8hl1lmu7WySA4xqy-139" value="&lt;font style=&quot;font-size: 10px;&quot;&gt;Open index.html&lt;/font&gt;" style="text;html=1;align=center;verticalAlign=middle;whiteSpace=wrap;rounded=0;fontSize=10;" vertex="1" parent="1">
          <mxGeometry x="302.5" y="1410" width="105" height="20" as="geometry" />
        </mxCell>
        <mxCell id="UqfL8hl1lmu7WySA4xqy-140" value="" style="endArrow=classic;html=1;rounded=0;dashed=1;dashPattern=1 2;" edge="1" parent="1">
          <mxGeometry width="50" height="50" relative="1" as="geometry">
            <mxPoint x="432.5" y="1464.46" as="sourcePoint" />
            <mxPoint x="287.5" y="1464" as="targetPoint" />
          </mxGeometry>
        </mxCell>
        <mxCell id="UqfL8hl1lmu7WySA4xqy-141" value="&lt;font style=&quot;font-size: 10px;&quot;&gt;Displaying entities&lt;/font&gt;" style="text;html=1;align=center;verticalAlign=middle;whiteSpace=wrap;rounded=0;fontSize=10;" vertex="1" parent="1">
          <mxGeometry x="282.5" y="1451" width="160" height="10" as="geometry" />
        </mxCell>
        <mxCell id="UqfL8hl1lmu7WySA4xqy-142" value="" style="endArrow=classic;html=1;rounded=0;" edge="1" parent="1">
          <mxGeometry width="50" height="50" relative="1" as="geometry">
            <mxPoint x="287.5" y="1500" as="sourcePoint" />
            <mxPoint x="426.5" y="1500" as="targetPoint" />
          </mxGeometry>
        </mxCell>
        <mxCell id="UqfL8hl1lmu7WySA4xqy-143" value="Open &quot;Platform&quot;" style="text;html=1;align=center;verticalAlign=middle;whiteSpace=wrap;rounded=0;fontSize=10;" vertex="1" parent="1">
          <mxGeometry x="292.5" y="1480" width="127.5" height="20" as="geometry" />
        </mxCell>
        <mxCell id="UqfL8hl1lmu7WySA4xqy-144" value="" style="endArrow=classic;html=1;rounded=0;" edge="1" parent="1">
          <mxGeometry width="50" height="50" relative="1" as="geometry">
            <mxPoint x="432.5" y="1520" as="sourcePoint" />
            <mxPoint x="732.5" y="1520" as="targetPoint" />
          </mxGeometry>
        </mxCell>
        <mxCell id="UqfL8hl1lmu7WySA4xqy-145" value="&lt;font style=&quot;font-size: 10px;&quot;&gt;GET /&lt;/font&gt;platforms" style="text;html=1;align=center;verticalAlign=middle;whiteSpace=wrap;rounded=0;fontSize=10;" vertex="1" parent="1">
          <mxGeometry x="564.5" y="1500" width="115" height="20" as="geometry" />
        </mxCell>
        <mxCell id="UqfL8hl1lmu7WySA4xqy-146" value="" style="endArrow=classic;html=1;rounded=0;" edge="1" parent="1">
          <mxGeometry width="50" height="50" relative="1" as="geometry">
            <mxPoint x="742.5" y="1540" as="sourcePoint" />
            <mxPoint x="892.5" y="1540" as="targetPoint" />
          </mxGeometry>
        </mxCell>
        <mxCell id="UqfL8hl1lmu7WySA4xqy-147" value="&lt;font style=&quot;font-size: 10px;&quot;&gt;Platform.all&lt;/font&gt;" style="text;html=1;align=center;verticalAlign=middle;whiteSpace=wrap;rounded=0;" vertex="1" parent="1">
          <mxGeometry x="782.5" y="1516" width="60" height="30" as="geometry" />
        </mxCell>
        <mxCell id="UqfL8hl1lmu7WySA4xqy-148" value="" style="endArrow=classic;html=1;rounded=0;" edge="1" parent="1">
          <mxGeometry width="50" height="50" relative="1" as="geometry">
            <mxPoint x="902.5" y="1560" as="sourcePoint" />
            <mxPoint x="1039" y="1560" as="targetPoint" />
          </mxGeometry>
        </mxCell>
        <mxCell id="UqfL8hl1lmu7WySA4xqy-149" value="&lt;font style=&quot;font-size: 10px;&quot;&gt;SELECT * FROM&amp;nbsp;&lt;/font&gt;platforms" style="text;html=1;align=center;verticalAlign=middle;whiteSpace=wrap;rounded=0;fontSize=10;" vertex="1" parent="1">
          <mxGeometry x="907" y="1535" width="130" height="30" as="geometry" />
        </mxCell>
        <mxCell id="UqfL8hl1lmu7WySA4xqy-150" value="" style="endArrow=classic;html=1;rounded=0;dashed=1;dashPattern=1 2;" edge="1" parent="1">
          <mxGeometry width="50" height="50" relative="1" as="geometry">
            <mxPoint x="1038" y="1600" as="sourcePoint" />
            <mxPoint x="902.5" y="1600" as="targetPoint" />
          </mxGeometry>
        </mxCell>
        <mxCell id="UqfL8hl1lmu7WySA4xqy-151" value="&lt;font style=&quot;font-size: 10px;&quot;&gt;Result set&lt;/font&gt;" style="text;html=1;align=center;verticalAlign=middle;whiteSpace=wrap;rounded=0;fontSize=10;" vertex="1" parent="1">
          <mxGeometry x="912" y="1576" width="130" height="30" as="geometry" />
        </mxCell>
        <mxCell id="UqfL8hl1lmu7WySA4xqy-152" value="" style="endArrow=classic;html=1;rounded=0;dashed=1;dashPattern=1 2;" edge="1" parent="1">
          <mxGeometry width="50" height="50" relative="1" as="geometry">
            <mxPoint x="892.5" y="1620" as="sourcePoint" />
            <mxPoint x="742.5" y="1620" as="targetPoint" />
          </mxGeometry>
        </mxCell>
        <mxCell id="UqfL8hl1lmu7WySA4xqy-153" value="return&lt;br&gt;ActiveRecord::Relation" style="text;html=1;align=center;verticalAlign=middle;whiteSpace=wrap;rounded=0;fontSize=10;" vertex="1" parent="1">
          <mxGeometry x="742.5" y="1590" width="150" height="30" as="geometry" />
        </mxCell>
        <mxCell id="UqfL8hl1lmu7WySA4xqy-154" value="" style="endArrow=classic;html=1;rounded=0;dashed=1;dashPattern=1 2;" edge="1" parent="1">
          <mxGeometry width="50" height="50" relative="1" as="geometry">
            <mxPoint x="732.5" y="1630" as="sourcePoint" />
            <mxPoint x="582.5" y="1630" as="targetPoint" />
          </mxGeometry>
        </mxCell>
        <mxCell id="UqfL8hl1lmu7WySA4xqy-155" value="&lt;font style=&quot;font-size: 10px;&quot;&gt;Displaying platforms &lt;br&gt;index.html&lt;/font&gt;" style="text;html=1;align=center;verticalAlign=middle;whiteSpace=wrap;rounded=0;" vertex="1" parent="1">
          <mxGeometry x="584" y="1598" width="150" height="30" as="geometry" />
        </mxCell>
        <mxCell id="UqfL8hl1lmu7WySA4xqy-156" value="" style="endArrow=classic;html=1;rounded=0;dashed=1;dashPattern=1 2;" edge="1" parent="1">
          <mxGeometry width="50" height="50" relative="1" as="geometry">
            <mxPoint x="572.5" y="1640" as="sourcePoint" />
            <mxPoint x="288.5" y="1640" as="targetPoint" />
          </mxGeometry>
        </mxCell>
        <mxCell id="UqfL8hl1lmu7WySA4xqy-157" value="&lt;font style=&quot;font-size: 10px;&quot;&gt;Displaying all platforms&lt;/font&gt;" style="text;html=1;align=center;verticalAlign=middle;whiteSpace=wrap;rounded=0;" vertex="1" parent="1">
          <mxGeometry x="292.5" y="1615" width="150" height="30" as="geometry" />
        </mxCell>
        <mxCell id="UqfL8hl1lmu7WySA4xqy-158" value="" style="rounded=0;whiteSpace=wrap;html=1;" vertex="1" parent="1">
          <mxGeometry x="427.5" y="1425" width="10" height="55" as="geometry" />
        </mxCell>
        <mxCell id="UqfL8hl1lmu7WySA4xqy-159" value="" style="endArrow=none;dashed=1;html=1;rounded=0;" edge="1" parent="1" target="UqfL8hl1lmu7WySA4xqy-160">
          <mxGeometry width="50" height="50" relative="1" as="geometry">
            <mxPoint x="431.5" y="1690" as="sourcePoint" />
            <mxPoint x="431.8299999999999" y="1390" as="targetPoint" />
          </mxGeometry>
        </mxCell>
        <mxCell id="UqfL8hl1lmu7WySA4xqy-160" value="" style="rounded=0;whiteSpace=wrap;html=1;" vertex="1" parent="1">
          <mxGeometry x="427.5" y="1495" width="10" height="30" as="geometry" />
        </mxCell>
        <mxCell id="UqfL8hl1lmu7WySA4xqy-161" value="" style="endArrow=none;dashed=1;html=1;rounded=0;" edge="1" parent="1" target="UqfL8hl1lmu7WySA4xqy-162">
          <mxGeometry width="50" height="50" relative="1" as="geometry">
            <mxPoint x="737.5" y="1690" as="sourcePoint" />
            <mxPoint x="737.1599999999999" y="1390" as="targetPoint" />
          </mxGeometry>
        </mxCell>
        <mxCell id="UqfL8hl1lmu7WySA4xqy-162" value="" style="rounded=0;whiteSpace=wrap;html=1;" vertex="1" parent="1">
          <mxGeometry x="732.5" y="1510" width="10" height="130" as="geometry" />
        </mxCell>
        <mxCell id="UqfL8hl1lmu7WySA4xqy-163" value="" style="endArrow=none;dashed=1;html=1;rounded=0;" edge="1" parent="1" target="UqfL8hl1lmu7WySA4xqy-164">
          <mxGeometry width="50" height="50" relative="1" as="geometry">
            <mxPoint x="897.5" y="1690" as="sourcePoint" />
            <mxPoint x="897.1599999999999" y="1390" as="targetPoint" />
          </mxGeometry>
        </mxCell>
        <mxCell id="UqfL8hl1lmu7WySA4xqy-164" value="" style="rounded=0;whiteSpace=wrap;html=1;" vertex="1" parent="1">
          <mxGeometry x="892.5" y="1530" width="10" height="100" as="geometry" />
        </mxCell>
        <mxCell id="UqfL8hl1lmu7WySA4xqy-165" value="" style="endArrow=none;dashed=1;html=1;rounded=0;" edge="1" parent="1" target="UqfL8hl1lmu7WySA4xqy-166">
          <mxGeometry width="50" height="50" relative="1" as="geometry">
            <mxPoint x="1045" y="1690" as="sourcePoint" />
            <mxPoint x="1044.77" y="1390" as="targetPoint" />
          </mxGeometry>
        </mxCell>
        <mxCell id="UqfL8hl1lmu7WySA4xqy-166" value="" style="rounded=0;whiteSpace=wrap;html=1;" vertex="1" parent="1">
          <mxGeometry x="1040" y="1550" width="10" height="60" as="geometry" />
        </mxCell>
        <mxCell id="UqfL8hl1lmu7WySA4xqy-167" value="" style="rounded=0;whiteSpace=wrap;html=1;" vertex="1" parent="1">
          <mxGeometry x="572.5" y="1620" width="10" height="25" as="geometry" />
        </mxCell>
        <mxCell id="UqfL8hl1lmu7WySA4xqy-168" value="DB" style="shape=cylinder3;whiteSpace=wrap;html=1;boundedLbl=1;backgroundOutline=1;size=15;fillColor=none;strokeColor=#000000;" vertex="1" parent="1">
          <mxGeometry x="1015" y="740" width="60" height="80" as="geometry" />
        </mxCell>
        <mxCell id="UqfL8hl1lmu7WySA4xqy-170" value="DB" style="shape=cylinder3;whiteSpace=wrap;html=1;boundedLbl=1;backgroundOutline=1;size=15;fillColor=none;strokeColor=#000000;" vertex="1" parent="1">
          <mxGeometry x="1015" y="1310" width="60" height="80" as="geometry" />
        </mxCell>
      </root>
    </mxGraphModel>
  </diagram>
</mxfile>
